<svg width="89" height="75" viewBox="0 0 89 75" fill="none" xmlns="http://www.w3.org/2000/svg">
<g id="Logo">
<circle id="WhiteCircle" cx="46.5" cy="36.5" r="35.5" fill="white"/>
<g id="Circles">
<circle id="BlackCircle" cx="46.5" cy="36.5" r="32.5" fill="black"/>
<g id="Group 2">
<g id="Group 1">
<g id="Letters">
<path d="M46.7306 43.9923V47H65.5743L65.0792 43.9923H46.7306Z" fill="white"/>
<path d="M65.0792 43.9923L65.5743 47H70.5248L65.0792 43.9923Z" fill="white"/>
<path d="M64.1433 35.1011L57.6535 23L49.8312 33.6485L51.5864 33.8267L57.6535 26.5L61.177 34.8001L64.1433 35.1011Z" fill="white"/>
<path d="M44.8252 36H48.1038L49.8312 33.6485L48.2475 33.4878L44.8252 36Z" fill="white"/>
<path d="M51.5864 33.8267L49.8312 33.6485L48.1038 36H49.7867L51.5864 33.8267Z" fill="white"/>
<path d="M61.6864 36L61.177 34.8001L51.5864 33.8267L49.7867 36H61.6864Z" fill="white"/>
<path d="M64.1433 35.1011L61.177 34.8001L61.6864 36H64.6254L64.1433 35.1011Z" fill="white"/>
<path d="M73 36L64.1433 35.1011L64.6254 36H73Z" fill="white"/>
<path d="M65.0792 43.9923L70.5248 47L64.6254 36H61.6864L65.0792 43.9923Z" fill="white"/>
<path d="M42.2327 43.9923H42.7466H42.9125H43.1684L49.7867 36H48.1038L42.2327 43.9923Z" fill="white"/>
<path d="M42.9125 43.9923H42.7466H42.2327L40.0233 47H40.6777L43.1684 43.9923H42.9125Z" fill="white"/>
<path d="M40.6777 47H40.0233L34.8812 54L40.6777 47Z" fill="white"/>
<path d="M46.7306 47V43.9923H45.1271H43.1684L40.6777 47H46.7306Z" fill="white"/>
<path d="M26.1583 26.0335V43.4209C26.1583 46.3619 23.7622 47 23.7622 47H40.0233L42.2327 43.9923H33.878C32.0999 43.9923 31.938 42.6994 31.938 42.6994V36.4844H38.8667C40.9881 36.4844 41.0838 37.9272 41.0838 37.9272V32.8774C41.0838 32.8774 40.5782 33.4878 38.9682 33.4878H31.9379V26.0335H40.668C44.7288 26.0335 44.8235 28.5135 44.8252 28.6859V23H23C23 23 26.1583 23.2034 26.1583 26.0335Z" fill="white"/>
</g>
</g>
</g>
</g>
</g>
</svg>
