<svg width="1020" height="437" viewBox="0 0 1020 437" fill="none" xmlns="http://www.w3.org/2000/svg">
<g id="ThinkingGuy" clip-path="url(#clip0_1_36)">
<path id="Hand" d="M223.77 243.614C223.779 242.274 223.512 240.946 222.986 239.714C222.459 238.481 221.683 237.371 220.708 236.451C219.733 235.532 218.578 234.823 217.317 234.37C216.056 233.917 214.714 233.729 213.377 233.817C212.04 233.905 210.735 234.268 209.544 234.884C208.353 235.499 207.302 236.353 206.456 237.393C205.61 238.432 204.988 239.635 204.628 240.926C204.267 242.217 204.177 243.569 204.363 244.896L176.348 281.582C175.153 283.973 174.689 286.663 175.016 289.316C175.343 291.969 176.445 294.467 178.184 296.496L180.382 299.06L190.465 297.043L201.893 286.96L200.548 275.532L214.665 253.349L214.647 253.333C217.118 253.176 219.436 252.083 221.131 250.278C222.825 248.473 223.769 246.09 223.77 243.614V243.614Z" fill="#FFB9B9"/>
<path id="Feet" d="M14.7441 431.732L0 376.97L0.692642 376.783C6.34562 375.261 12.3716 376.047 17.4451 378.968C22.5186 381.889 26.2241 386.706 27.7466 392.358L27.747 392.36L36.7521 425.807L14.7441 431.732Z" fill="#2F2E41"/>
<g id="Body">
<path id="Vector" d="M30.041 422.968L25.468 405.984L88.8 380.265L95.549 405.331L30.041 422.968Z" fill="#FFB8B8"/>
<path id="Vector_2" d="M117.278 420.254L103.054 409.91L136.185 350.121L157.179 365.388L117.278 420.254Z" fill="#FFB8B8"/>
<path id="Vector_3" d="M110.879 436.681L65.0128 403.326L65.4347 402.746C68.878 398.011 74.0609 394.838 79.8435 393.925C85.626 393.012 91.5345 394.433 96.2695 397.875L96.2706 397.876L124.284 418.249L110.879 436.681Z" fill="#2F2E41"/>
<path id="Vector_4" d="M238.192 336.704L202.397 301.932C199.273 298.897 195.159 297.092 190.81 296.849C186.462 296.606 182.172 297.942 178.729 300.609L111.143 375.693L117.193 385.104L181.726 341.41L225.42 398.548L267.098 377.71L238.192 336.704Z" fill="#2F2E41"/>
<path id="Vector_5" d="M222.731 344.099L196.515 342.082L177.529 337.479C176.456 335.806 174.898 334.501 173.064 333.737C171.229 332.974 169.205 332.79 167.262 333.209C165.319 333.628 163.551 334.63 162.194 336.082C160.837 337.534 159.956 339.365 159.668 341.331C159.381 343.298 159.701 345.305 160.586 347.084C161.47 348.864 162.878 350.33 164.619 351.288C166.361 352.245 168.353 352.648 170.329 352.442C172.306 352.236 174.172 351.431 175.679 350.135L175.676 350.149L187.104 354.854L236.176 371.66L242.226 366.954L222.731 344.099Z" fill="#FFB9B9"/>
<path id="Vector_6" d="M285.92 416.699L271.131 426.11H253.653L172.315 395.86L53.332 417.371L49.971 391.826L158.871 344.099L254.326 375.693L285.92 416.699Z" fill="#2F2E41"/>
<path id="Vector_7" d="M322.159 331.804C322.159 347.626 319.666 363.349 314.772 378.395L312.809 384.432L303.398 427.454L293.315 430.143L285.92 420.732L271.131 409.976L260.376 392.499L251.153 377.132L248.276 372.332L238.192 321.915L199.876 300.404L187.104 298.388L189.793 290.993L201.22 275.532L212.648 274.188L216.009 271.499L218.698 272.843L233.521 278.553L281.578 258.249L288.609 259.399L312.809 279.566C318.995 296.287 322.161 313.975 322.159 331.804V331.804Z" fill="#CCCCCC"/>
<path id="Vector_8" opacity="0.1" d="M314.825 325.949L289.281 342.754L251.153 377.131L248.276 372.332L240.209 331.999H242.226L263.065 293.683L314.825 325.949Z" fill="black"/>
<path id="Vector_9" d="M263.065 289.649L242.226 327.965L230.126 341.41L219.371 344.099L248.276 375.693L289.281 338.721L314.825 321.915L263.065 289.649Z" fill="#CCCCCC"/>
</g>
<g id="Head">
<path id="Vector_10" d="M254.326 253.349C268.805 253.349 280.542 241.611 280.542 227.132C280.542 212.653 268.805 200.916 254.326 200.916C239.847 200.916 228.109 212.653 228.109 227.132C228.109 241.611 239.847 253.349 254.326 253.349Z" fill="#FFB9B9"/>
<path id="Vector_11" d="M233.935 207.639L231.094 208.732C230.663 208.44 230.293 208.066 230.007 207.631C229.72 207.197 229.522 206.71 229.423 206.198C229.325 205.687 229.328 205.161 229.433 204.651C229.538 204.141 229.742 203.657 230.034 203.225C230.049 203.203 230.065 203.18 230.08 203.158L224.831 202.912C228.201 198.425 232.485 194.704 237.4 191.995C242.316 189.287 247.75 187.653 253.344 187.203C258.938 186.752 264.564 187.494 269.849 189.38C275.135 191.266 279.96 194.253 284.005 198.143C284.244 197.32 286.849 198.921 287.912 200.545C288.27 199.206 290.713 205.68 291.577 210.257C291.977 208.733 293.514 211.193 292.167 213.554C293.021 213.429 293.406 215.613 292.746 216.83C293.68 216.391 293.522 218.999 292.509 220.741C293.842 220.623 292.396 248.072 272.396 246.072C271.003 239.675 271.396 240.072 269.756 231.846C268.993 231.036 268.157 230.298 267.323 229.562L262.81 225.578C257.563 220.946 252.79 215.23 245.799 213.499C240.996 212.309 237.958 212.04 240.576 206.627C238.211 207.614 236.002 209.082 233.615 209.999C233.647 209.242 233.981 208.396 233.935 207.639Z" fill="#2F2E41"/>
<path id="Vector_12" d="M267.434 234.863C270.033 234.863 272.14 232.756 272.14 230.157C272.14 227.559 270.033 225.452 267.434 225.452C264.835 225.452 262.729 227.559 262.729 230.157C262.729 232.756 264.835 234.863 267.434 234.863Z" fill="#FFB9B9"/>
</g>
<g id="Computer">
<path id="Vector_13" d="M963.277 0H323.894C321.583 -2.62643e-06 319.295 0.455194 317.16 1.3396C315.025 2.22401 313.084 3.52029 311.45 5.15446C309.816 6.78864 308.52 8.72868 307.635 10.8638C306.751 12.999 306.296 15.2874 306.296 17.5985V373.851C306.296 376.162 306.751 378.45 307.635 380.585C308.52 382.721 309.816 384.661 311.45 386.295C313.084 387.929 315.025 389.225 317.16 390.11C319.295 390.994 321.583 391.449 323.894 391.449H963.277C967.945 391.449 972.421 389.595 975.721 386.295C979.021 382.994 980.876 378.518 980.876 373.851V17.5985C980.876 12.9311 979.021 8.45484 975.721 5.15448C972.421 1.85412 967.945 2.65217e-06 963.277 0V0Z" fill="#3F3D56"/>
<path id="Vector_14" d="M957.281 31.1015H329.89V385.014H957.281V31.1015Z" fill="white"/>
<path id="Vector_15" d="M643.049 21.4493C646.603 21.4493 649.484 18.5683 649.484 15.0145C649.484 11.4607 646.603 8.57971 643.049 8.57971C639.496 8.57971 636.615 11.4607 636.615 15.0145C636.615 18.5683 639.496 21.4493 643.049 21.4493Z" fill="white"/>
<path id="Vector_16" d="M998.491 378.58H937.262V374.168C937.262 374.053 937.239 373.94 937.195 373.833C937.151 373.727 937.087 373.631 937.006 373.55C936.925 373.468 936.828 373.404 936.722 373.36C936.616 373.316 936.502 373.293 936.387 373.293H915.394C915.279 373.293 915.166 373.316 915.06 373.36C914.953 373.404 914.857 373.468 914.776 373.55C914.694 373.631 914.63 373.727 914.586 373.833C914.542 373.939 914.52 374.053 914.52 374.168V378.58H901.399V374.168C901.399 374.053 901.376 373.94 901.332 373.833C901.289 373.727 901.224 373.631 901.143 373.55C901.062 373.468 900.965 373.404 900.859 373.36C900.753 373.316 900.639 373.293 900.524 373.293H879.532C879.417 373.293 879.303 373.316 879.197 373.36C879.091 373.404 878.994 373.468 878.913 373.55C878.832 373.631 878.767 373.727 878.723 373.833C878.679 373.94 878.657 374.053 878.657 374.168V374.168V378.58H865.536V374.168C865.536 374.053 865.514 373.94 865.47 373.833C865.426 373.727 865.361 373.631 865.28 373.55C865.199 373.468 865.102 373.404 864.996 373.36C864.89 373.316 864.776 373.293 864.662 373.293H843.669C843.554 373.293 843.44 373.316 843.334 373.36C843.228 373.404 843.131 373.468 843.05 373.55C842.969 373.631 842.904 373.727 842.86 373.833C842.816 373.94 842.794 374.053 842.794 374.168V374.168V378.58H829.673V374.168C829.673 374.053 829.651 373.94 829.607 373.833C829.563 373.727 829.498 373.631 829.417 373.55C829.336 373.468 829.24 373.404 829.133 373.36C829.027 373.316 828.914 373.293 828.799 373.293H807.806C807.691 373.293 807.577 373.316 807.471 373.36C807.365 373.404 807.268 373.468 807.187 373.55C807.106 373.631 807.042 373.727 806.998 373.833C806.954 373.939 806.931 374.053 806.931 374.168V378.58H793.811V374.168C793.811 374.053 793.788 373.94 793.744 373.833C793.7 373.727 793.636 373.631 793.554 373.55C793.473 373.468 793.377 373.404 793.271 373.36C793.164 373.316 793.051 373.293 792.936 373.293H771.943C771.828 373.293 771.714 373.316 771.608 373.36C771.502 373.404 771.406 373.468 771.324 373.55C771.243 373.631 771.179 373.727 771.135 373.833C771.091 373.94 771.068 374.053 771.068 374.168V374.168V378.58H757.948V374.168C757.948 374.053 757.925 373.94 757.881 373.833C757.837 373.727 757.773 373.631 757.691 373.55C757.61 373.468 757.514 373.404 757.408 373.36C757.301 373.316 757.188 373.293 757.073 373.293H736.08C735.965 373.293 735.851 373.316 735.745 373.36C735.639 373.404 735.543 373.468 735.461 373.55C735.38 373.631 735.316 373.727 735.272 373.833C735.228 373.94 735.205 374.053 735.205 374.168V374.168V378.58H722.085V374.168C722.085 374.053 722.062 373.94 722.018 373.833C721.974 373.727 721.91 373.631 721.829 373.55C721.747 373.468 721.651 373.404 721.545 373.36C721.439 373.316 721.325 373.293 721.21 373.293H556.766C556.651 373.293 556.537 373.316 556.431 373.36C556.325 373.404 556.228 373.468 556.147 373.55C556.066 373.631 556.001 373.727 555.957 373.833C555.913 373.94 555.891 374.053 555.891 374.168V374.168V378.58H542.77V374.168C542.77 374.053 542.748 373.94 542.704 373.833C542.66 373.727 542.595 373.631 542.514 373.55C542.433 373.468 542.336 373.404 542.23 373.36C542.124 373.316 542.01 373.293 541.896 373.293H520.903C520.788 373.293 520.674 373.316 520.568 373.36C520.462 373.404 520.365 373.468 520.284 373.55C520.203 373.631 520.139 373.727 520.095 373.833C520.051 373.94 520.028 374.053 520.028 374.168V374.168V378.58H506.907V374.168C506.907 374.053 506.885 373.94 506.841 373.833C506.797 373.727 506.732 373.631 506.651 373.55C506.57 373.468 506.474 373.404 506.368 373.36C506.261 373.316 506.148 373.293 506.033 373.293H485.04C484.925 373.293 484.811 373.316 484.705 373.36C484.599 373.404 484.503 373.468 484.421 373.55C484.34 373.631 484.276 373.727 484.232 373.833C484.188 373.94 484.165 374.053 484.165 374.168V374.168V378.58H471.045V374.168C471.045 374.053 471.022 373.94 470.978 373.833C470.934 373.727 470.87 373.631 470.788 373.55C470.707 373.468 470.611 373.404 470.505 373.36C470.398 373.316 470.285 373.293 470.17 373.293H449.177C449.062 373.293 448.948 373.316 448.842 373.36C448.736 373.404 448.64 373.468 448.558 373.55C448.477 373.631 448.413 373.727 448.369 373.833C448.325 373.94 448.302 374.053 448.302 374.168V374.168V378.58H435.182V374.168C435.182 374.053 435.159 373.94 435.115 373.833C435.071 373.727 435.007 373.631 434.925 373.55C434.844 373.468 434.748 373.404 434.642 373.36C434.536 373.316 434.422 373.293 434.307 373.293H413.314C413.199 373.293 413.085 373.316 412.979 373.36C412.873 373.404 412.777 373.468 412.696 373.55C412.614 373.631 412.55 373.727 412.506 373.833C412.462 373.94 412.439 374.053 412.439 374.168V374.168V378.58H399.319V374.168C399.319 374.053 399.296 373.94 399.252 373.833C399.208 373.727 399.144 373.631 399.063 373.55C398.981 373.468 398.885 373.404 398.779 373.36C398.673 373.316 398.559 373.293 398.444 373.293H377.451C377.219 373.293 376.997 373.386 376.833 373.55C376.669 373.714 376.576 373.936 376.576 374.168V378.58H363.456V374.168C363.456 374.053 363.433 373.94 363.389 373.833C363.345 373.727 363.281 373.631 363.2 373.55C363.118 373.468 363.022 373.404 362.916 373.36C362.81 373.316 362.696 373.293 362.581 373.293H341.588C341.356 373.293 341.134 373.386 340.97 373.55C340.806 373.714 340.714 373.936 340.714 374.168V378.58H300.477C294.909 378.58 289.57 380.791 285.633 384.728C281.696 388.665 279.484 394.005 279.484 399.573V409.065C279.484 414.633 281.696 419.972 285.633 423.909C289.57 427.846 294.909 430.058 300.477 430.058H998.491C1004.06 430.058 1009.4 427.846 1013.34 423.909C1017.27 419.972 1019.48 414.633 1019.48 409.065V399.573C1019.48 396.816 1018.94 394.086 1017.89 391.539C1016.83 388.992 1015.28 386.678 1013.34 384.728C1011.39 382.779 1009.07 381.233 1006.52 380.178C1003.98 379.123 1001.25 378.58 998.491 378.58V378.58Z" fill="#3F3D56"/>
</g>
<g id="ReactIcon" clip-path="url(#clip1_1_36)">
<path id="Vector_17" d="M75.0691 78.2922C76.3484 78.8117 77.8066 78.1958 78.3261 76.9165C78.8456 75.6373 78.2297 74.1791 76.9504 73.6596C75.6712 73.1401 74.213 73.756 73.6935 75.0353C73.174 76.3145 73.7899 77.7727 75.0691 78.2922Z" fill="#00D8FF"/>
<path id="Vector_18" d="M73.8531 81.2867C71.0417 80.2234 68.417 78.7204 66.0771 76.8337C65.004 75.9431 64.105 74.8615 63.4256 73.6437C63.1532 73.2113 62.9776 72.725 62.9108 72.2184C62.844 71.7117 62.8876 71.1966 63.0386 70.7084C63.6605 69.1768 65.9526 68.3591 69.1699 68.5216C72.2609 68.7631 75.2925 69.5029 78.1473 70.7124C80.9973 71.8236 83.6512 73.3838 86.0082 75.3336C87.0408 76.1935 87.9129 77.2295 88.5841 78.3937C88.8551 78.8106 89.0312 79.2819 89.0998 79.7744C89.1684 80.2669 89.1278 80.7684 88.981 81.2435C88.3346 82.8352 85.7987 83.6845 82.3619 83.4566C79.4314 83.1725 76.5618 82.4407 73.8531 81.2867V81.2867ZM77.6973 71.8205C74.9643 70.6678 72.0652 69.9576 69.1088 69.7164C66.147 69.5681 64.4815 70.3337 64.1478 71.1556C63.7986 72.0154 64.4996 73.8747 66.8628 75.9278C69.1028 77.7288 71.614 79.1635 74.3031 80.1786C76.8936 81.2849 79.6382 81.9882 82.4415 82.2639C85.674 82.4768 87.5208 81.6499 87.8692 80.792C87.942 80.4785 87.9491 80.1534 87.8899 79.8372C87.8307 79.5209 87.7065 79.2204 87.5253 78.9545C86.9224 77.9187 86.1417 76.9974 85.2189 76.2327C82.9627 74.3708 80.4235 72.8812 77.6973 71.8205V71.8205Z" fill="#00D8FF"/>
<path id="Vector_19" d="M66.0556 85.3915C65.6194 85.2259 65.2349 84.9476 64.9412 84.585C63.9252 83.2809 64.3619 80.8873 66.1096 78.181C67.8632 75.624 70.0188 73.3674 72.4929 71.4987C74.879 69.5849 77.556 68.0653 80.4222 66.9973C81.683 66.5323 83.0163 66.2942 84.3601 66.2943C84.8568 66.2682 85.3531 66.3517 85.814 66.5388C86.2748 66.726 86.6888 67.0122 87.0266 67.3772C88.0834 68.7324 87.5514 71.3528 85.6383 74.2164C83.9276 76.6134 81.8595 78.734 79.5059 80.5041C77.1803 82.4084 74.5669 83.9311 71.7636 85.0155C70.456 85.4999 69.0701 85.7381 67.6758 85.7181C67.1212 85.7013 66.5735 85.5909 66.0556 85.3915V85.3915ZM73.2293 72.4388C70.8656 74.2305 68.8021 76.3869 67.1164 78.8273C65.5073 81.32 65.3397 83.144 65.8871 83.8477C66.4542 84.5777 68.4186 84.9016 71.3784 83.8802C74.0572 82.8385 76.5541 81.379 78.7761 79.5558C81.0289 77.8647 83.0095 75.8386 84.6491 73.5481C86.4496 70.8525 86.6576 68.8387 86.0884 68.1089C85.8532 67.8891 85.575 67.7205 85.2713 67.6137C84.9676 67.5069 84.6451 67.4643 84.3241 67.4885C83.1252 67.4953 81.9368 67.7135 80.8137 68.1331C78.0733 69.1581 75.5143 70.6145 73.2335 72.447L73.2293 72.4388Z" fill="#00D8FF"/>
<path id="Vector_20" d="M76.5732 89.6767C75.3178 89.1669 74.0318 87.7596 72.9513 85.6576C71.6116 82.8613 70.733 79.8668 70.3495 76.79C69.8835 73.7669 69.9041 70.6887 70.4107 67.672C70.6375 66.3464 71.0974 65.0715 71.7693 63.9065C71.9947 63.4647 72.3143 63.0776 72.7056 62.7727C73.0968 62.4678 73.5502 62.2525 74.0337 62.1418C75.7354 61.9036 77.74 63.6728 79.2657 66.7597C80.4881 69.4387 81.2925 72.2893 81.6507 75.2122C82.1389 78.1782 82.1528 81.2029 81.6921 84.1733C81.4587 85.5482 80.9728 86.8681 80.259 88.0661C80.0213 88.5183 79.6886 88.9138 79.2838 89.2254C78.8789 89.5369 78.4115 89.7573 77.9135 89.8713C77.4574 89.9264 76.9948 89.8593 76.5732 89.6767V89.6767ZM71.535 76.6217C71.9066 79.5642 72.7442 82.4288 74.0164 85.1079C75.372 87.7469 76.8684 88.8036 77.7487 88.6743C78.6649 88.5445 79.9257 87.008 80.5178 83.9339C80.9516 81.0954 80.9333 78.2062 80.4638 75.3735C80.1246 72.5775 79.3596 69.85 78.1952 67.2856C76.759 64.3797 75.1184 63.1943 74.2017 63.3228C73.8941 63.4169 73.6093 63.5737 73.3653 63.7833C73.1213 63.993 72.9234 64.251 72.7842 64.541C72.1899 65.5819 71.7838 66.7196 71.5846 67.9016C71.1036 70.7878 71.0869 73.7324 71.5352 76.6239L71.535 76.6217Z" fill="#00D8FF"/>
</g>
<g id="CssIcon" clip-path="url(#clip2_1_36)">
<path id="Vector_21" d="M220.669 107.179L212.832 83.1229L236.892 77.5895L240.348 102.65L231.123 107.647L220.669 107.179Z" fill="#1572B6"/>
<path id="Vector_22" d="M230.658 105.556L238.112 101.518L235.159 80.1028L225.324 82.3647L230.658 105.556Z" fill="#33A9DC"/>
<path id="Vector_23" d="M227.37 91.2625L231.356 90.3458L230.922 87.1981L226.661 88.178L225.968 85.1656L233.521 83.4286L233.635 84.2531L234.804 92.7245L228.063 94.2748L227.37 91.2625V91.2625Z" fill="white"/>
<path id="Vector_24" d="M229.188 99.081L229.175 99.088L225.612 98.9532L224.846 96.6002L221.821 97.2957L223.331 101.928L229.895 102.222L229.909 102.215L229.188 99.081V99.081Z" fill="#EBEBEB"/>
<path id="Vector_25" d="M231.763 93.2894L232.329 97.4065L229.178 99.0854L229.899 102.22L235.68 99.0881L235.609 98.5689L234.786 92.5944L231.763 93.2894V93.2894Z" fill="white"/>
<path id="Vector_26" d="M225.979 85.1632L226.672 88.1755L219.396 89.8489L219.179 89.1855L218.691 87.6899L218.433 86.8986L225.979 85.1632V85.1632ZM227.37 91.2625L228.063 94.2748L224.751 95.0367L224.534 94.3732L224.047 92.8775L223.789 92.0862L227.37 91.2625V91.2625Z" fill="#EBEBEB"/>
</g>
<g id="HTML5" clip-path="url(#clip3_1_36)">
<path id="Vector_27" d="M65.0984 169.125L54.0861 189.524L44.0667 188.066L36.0745 181.894L43.0781 159.792L65.0984 169.125Z" fill="#E44D26"/>
<path id="Vector_28" d="M44.8459 186.264L52.9421 187.443L62.3526 170.011L53.3517 166.196L44.8459 186.264Z" fill="#F16529"/>
<path id="Vector_29" d="M47.2424 169.756L51.1422 171.409L52.247 168.803L45.3344 165.873L45.104 166.6L42.7372 174.07L48.9062 176.685L50.0109 174.078L46.3631 172.532L47.2424 169.756V169.756ZM45.0753 176.599L42.308 175.426L40.9595 179.682L45.9783 183.558L45.9924 183.56L47.1418 180.848L47.1284 180.846L44.3905 178.761L45.0753 176.599Z" fill="#EBEBEB"/>
<path id="Vector_30" d="M47.5747 154.885L48.9756 155.478L48.421 156.787L49.7025 157.33L50.2572 156.022L51.6582 156.615L49.9785 160.578L48.5776 159.985L49.14 158.658L47.8585 158.114L47.296 159.441L45.8951 158.848L47.5748 154.885L47.5747 154.885ZM52.9433 158.71L51.7102 158.188L52.2672 156.873L56.1355 158.513L55.5784 159.827L54.3445 159.304L53.2219 161.953L51.8209 161.359L52.9436 158.71L52.9435 158.71L52.9433 158.71ZM56.7493 158.773L58.2101 159.392L58.5184 161.166L60.0063 160.154L61.4677 160.773L59.788 164.736L58.3928 164.145L59.2253 162.18L57.6643 163.181L57.6401 163.171L57.2729 161.353L56.4404 163.317L55.0697 162.736L56.7493 158.773ZM62.1649 161.069L63.5662 161.662L62.4417 164.316L64.4118 165.151L63.8566 166.461L60.4851 165.032L62.1648 161.068L62.1649 161.069Z" fill="black"/>
<path id="Vector_31" d="M48.8967 176.681L52.2913 178.12L50.5384 181.364L47.1312 180.846L45.9819 183.558L52.261 184.472L52.4891 184.049L56.0454 177.462L56.4093 176.79L50.0014 174.074L48.8967 176.681ZM51.1354 171.399L51.1327 171.405L57.7915 174.227L58.095 173.665L58.7807 172.397L59.143 171.725L52.2375 168.799L51.1354 171.399L51.1354 171.399Z" fill="white"/>
</g>
<g id="GitIcon" clip-path="url(#clip4_1_36)">
<path id="Vector_32" d="M146.321 126.396L130.603 110.679C129.698 109.774 128.23 109.774 127.325 110.679L124.061 113.943L128.201 118.083C129.163 117.758 130.267 117.976 131.034 118.743C131.804 119.515 132.021 120.628 131.688 121.593L135.678 125.584C136.643 125.251 137.757 125.466 138.528 126.239C139.606 127.316 139.606 129.062 138.528 130.14C137.45 131.218 135.705 131.218 134.626 130.14C133.816 129.328 133.615 128.138 134.026 127.139L130.304 123.418L130.304 133.211C130.574 133.344 130.82 133.52 131.034 133.732C132.111 134.81 132.111 136.556 131.034 137.634C129.956 138.712 128.209 138.712 127.133 137.634C126.055 136.556 126.055 134.81 127.133 133.733C127.391 133.474 127.698 133.27 128.036 133.131V123.247C127.697 123.108 127.39 122.904 127.133 122.645C126.316 121.829 126.12 120.631 126.538 119.629L122.457 115.547L111.679 126.324C110.774 127.23 110.774 128.698 111.679 129.603L127.397 145.321C128.302 146.226 129.77 146.226 130.676 145.321L146.321 129.676C147.226 128.771 147.226 127.301 146.321 126.396" fill="#DE4C36"/>
</g>
<g id="ComputerScreen" clip-path="url(#clip5_1_36)">
<path id="Vector_33" d="M879.672 122.544C815.773 54.7168 680.789 27.203 548.036 56.8361C477.853 72.5021 410.184 103.891 376.649 164.671C316.702 273.322 442.569 308.022 524.873 319.082C564.67 324.429 602.153 333.412 636.405 345.643C698.027 367.646 807.102 387.144 889.352 295.489C948.967 229.057 922.236 167.724 879.672 122.544Z" fill="#F2F2F2"/>
<path id="Vector_34" d="M509.205 135.964C509.026 134.886 508.665 133.83 508.13 132.823C508.061 132.633 507.942 132.455 507.779 132.302C507.616 132.149 507.413 132.023 507.182 131.933C506.874 131.872 506.552 131.869 506.242 131.925L501.415 132.488C501.011 132.502 500.625 132.617 500.314 132.815C499.685 133.319 500.304 134.131 500.285 134.827C500.264 135.609 499.352 136.244 498.364 136.454C497.355 136.61 496.315 136.6 495.311 136.426L488.562 135.625C490.55 135.141 492.319 134.241 493.668 133.026C494.556 132.224 495.029 130.725 493.745 130.345C493.364 130.265 492.966 130.241 492.573 130.274C489.515 130.292 487.109 128.344 484.246 127.524C482.414 127.033 480.425 126.996 478.564 127.42C476.703 127.843 475.065 128.704 473.885 129.88L477.48 130.012C477.818 129.998 478.154 130.066 478.438 130.207C479.226 130.701 478.246 131.65 478.357 132.423C478.501 133.427 480.25 133.642 481.568 133.744C482.886 133.845 484.559 134.662 483.925 135.55C477.299 137.29 470.557 132.147 463.599 132.78C461.837 132.94 460.175 133.468 458.455 133.8C447.952 135.827 437.093 130.418 426.364 131.564C423.978 131.874 421.634 132.345 419.358 132.973C417.898 133.339 416.375 133.734 415.314 134.582C414.252 135.43 413.849 136.881 414.854 137.768C412.083 137.942 409.294 137.74 406.616 137.171C407.34 137.478 407.943 137.928 408.36 138.474C408.778 139.02 408.995 139.641 408.989 140.273C404.663 140.811 400.452 141.791 396.468 143.186C397.211 144.129 398.08 145.011 399.06 145.819L393.583 148.503C395.433 148.858 396.39 150.783 395.314 151.985C397.232 151.334 398.421 149.65 400.473 149.308C401.817 149.085 403.184 149.504 404.459 149.898C405.734 150.292 407.136 150.674 408.456 150.378C409.775 150.083 410.749 148.777 409.91 147.945C415.552 146.69 421.382 145.995 427.257 145.878C427.71 145.835 428.17 145.901 428.571 146.068C429.336 146.473 429.134 147.347 429.093 148.056C429.052 148.766 429.777 149.698 430.608 149.378C429.63 150.025 430.466 151.242 431.404 151.922C432.342 152.603 433.473 153.541 432.898 154.426C432.748 154.657 432.494 154.841 432.35 155.074C431.924 155.762 432.6 156.564 433.397 157.02C434.195 157.477 435.171 157.796 435.725 158.429C436.279 159.061 436.027 160.168 435.037 160.256L432.222 157.53C431.261 158.291 430.601 159.244 430.321 160.279C433.306 162.14 433.755 165.928 431.256 168.168C429.979 169.312 428.163 170.007 426.578 170.9C424.993 171.793 423.527 173.064 423.531 174.566C423.537 177.163 423.259 179.575 424.535 181.982C426.887 186.42 429.602 190.742 432.665 194.92C433.469 196.017 434.508 197.22 436.138 197.409C434.079 193.585 432.225 189.702 430.577 185.759C431.65 185.762 432.891 185.827 433.52 186.491C434.041 187.04 433.929 187.787 434.091 188.454C434.297 189.1 434.64 189.715 435.108 190.277L444.94 203.637C445.756 204.745 446.691 205.934 448.248 206.382C449.244 206.669 450.397 206.615 451.314 207.028C452.032 207.351 452.516 207.926 453.249 208.231C455.32 209.093 458.2 207.44 460.136 208.469C460.69 208.763 461.042 209.23 461.552 209.567C463.34 210.748 466.272 209.958 468.336 210.839C469.666 211.407 470.356 212.543 471.065 213.572C472.842 216.149 475.718 218.675 479.526 218.88C480.722 218.944 481.944 218.771 483.114 218.974C484.283 219.177 485.434 219.956 485.247 220.859C484.925 222.408 485.928 224.104 485.659 225.659C485.168 228.492 479.901 229.736 479.449 232.572C479.35 233.193 479.505 233.834 479.311 234.442C479.074 235.187 478.34 235.793 478.08 236.533C477.586 237.937 478.904 239.333 480.351 240.277C481.799 241.221 483.526 242.035 484.317 243.356C485.154 244.753 484.743 246.382 485.015 247.903C485.609 251.225 489.37 253.687 493.241 255.275C494.42 255.759 495.686 256.227 496.45 257.066C497.446 258.162 497.347 259.605 497.679 260.914C498.494 264.119 502.032 266.76 502.132 270.025C502.203 272.344 500.513 274.449 499.503 276.638C498.556 278.735 498.213 280.964 498.498 283.171C498.783 285.379 499.689 287.514 501.154 289.43C501.909 290.403 502.813 291.32 503.347 292.375C504.301 294.258 503.992 296.398 504.871 298.301C506.034 300.818 509.228 302.896 508.922 305.554C510.372 307.851 513.575 308.98 516.795 309.664L522.567 310.889C523.672 311.124 524.826 311.361 525.952 311.191C527.077 311.021 528.151 310.308 528.122 309.433C525.292 308.946 522.371 308.429 520.038 307.113C517.705 305.798 516.106 303.455 516.992 301.347C517.402 300.37 518.275 299.241 517.445 298.434C516.97 297.972 516.1 297.851 515.564 297.429C514.728 296.771 515.015 295.666 515.617 294.872C516.218 294.079 517.087 293.37 517.329 292.472C517.452 291.97 517.37 291.451 517.095 290.986C516.82 290.52 516.365 290.13 515.79 289.867C516.861 289.559 517.834 289.082 518.647 288.469C519.398 287.814 519.745 286.805 519.154 286.061C520.909 286.231 522.981 286.314 524.133 285.29C525.053 284.473 524.99 283.25 524.626 282.209C524.263 281.168 523.649 280.156 523.629 279.079C527.678 279.225 531.735 279.12 535.761 278.765C535.178 277.27 533.856 276.006 532.072 275.242C533.896 275.006 535.557 273.341 536.133 272.001C536.709 270.66 536.562 269.2 536.206 267.816C536.069 267.46 536.05 267.083 536.151 266.72C536.357 266.22 537 265.916 537.594 265.655L546.645 261.69C547.185 261.484 547.674 261.208 548.092 260.876C549.04 260.026 548.9 258.743 548.414 257.691C547.929 256.638 547.151 255.649 546.964 254.542C546.405 251.232 551.049 248.858 552.617 245.742C553.232 244.52 553.357 243.191 553.476 241.884C553.604 240.481 553.613 238.851 552.201 237.947C550.847 237.08 548.732 237.274 547.315 236.467C546.016 235.728 545.568 234.292 544.149 233.695C542.861 233.153 541.245 233.498 539.812 233.243C537.288 232.794 535.7 230.576 533.123 230.37C531.669 230.254 530.023 230.797 528.832 230.151C527.782 229.581 527.74 228.437 527.54 227.467C527.189 225.958 526.241 224.567 524.823 223.482C523.405 222.397 521.585 221.669 519.609 221.397C518.109 221.214 516.478 221.284 515.202 220.655C513.911 220.019 513.319 218.827 512.304 217.946C510.669 216.526 508.094 216.021 505.682 215.589L495.87 213.829C494.128 213.517 491.883 213.351 490.949 214.515C490.672 214.958 490.476 215.428 490.366 215.912C490.016 216.787 489.311 217.554 488.353 218.104C487.395 218.654 486.233 218.959 485.034 218.973C484.212 217.903 482.879 217.117 481.315 216.778C480.32 216.567 479.255 216.543 478.306 216.232C477.79 216.04 477.33 215.769 476.955 215.436C476.58 215.104 476.298 214.716 476.127 214.298C475.955 213.879 475.897 213.438 475.957 213.002C476.016 212.565 476.192 212.143 476.473 211.76C477.038 210.992 477.257 210.103 477.094 209.23C476.932 208.358 476.397 207.551 475.574 206.933C473.905 205.79 471.491 205.514 469.254 205.629C468.668 204.653 469.648 203.553 470.704 202.844C471.759 202.135 473.041 201.438 473.271 200.38C473.633 198.715 470.848 197.45 468.734 197.947C466.619 198.443 465.27 200.01 464.377 201.554C463.866 202.44 463.43 203.374 462.623 204.121C461.816 204.868 460.515 205.403 459.285 205.163C457.544 204.824 456.872 203.246 456.486 201.907C455.969 200.11 455.449 198.289 455.558 196.452C455.666 194.614 456.478 192.728 458.254 191.484C461.149 189.457 465.589 189.656 469.495 189.979C468.572 189.186 468.8 187.849 469.787 187.103C470.309 186.749 470.935 186.498 471.612 186.371C472.289 186.245 472.997 186.246 473.673 186.374C474.85 186.561 475.911 187.045 476.683 187.747C477.793 188.78 478.109 190.173 478.948 191.345C479.787 192.517 481.674 193.516 483.218 192.888C484.552 192.345 484.763 190.934 484.431 189.809C484.099 188.684 483.394 187.59 483.515 186.44C483.744 184.247 486.725 182.926 489.355 182.023C491.986 181.12 494.998 179.905 495.414 177.727C495.429 177.301 495.534 176.879 495.727 176.479C496.018 176.125 496.424 175.835 496.904 175.634C504.581 171.764 512.386 167.847 521.16 165.732C521.617 165.622 521.67 165.744 522.136 165.658C522.787 165.371 522.355 164.577 521.731 164.257C521.107 163.937 520.272 163.692 520.114 163.131C519.998 162.719 520.316 162.314 520.399 161.897C520.602 160.873 518.995 159.927 517.747 160.336C517.043 159.624 518.437 158.797 519.565 158.56C522.951 157.849 526.427 157.416 529.934 157.268C530.339 157.219 530.753 157.273 531.114 157.421C531.703 157.732 531.628 158.446 531.21 158.89C530.793 159.335 530.144 159.614 529.623 159.99C529.055 160.412 528.65 160.945 528.452 161.531C528.253 162.117 528.27 162.734 528.5 163.313C530.331 164.023 532.321 164.754 534.348 164.504C536.376 164.254 538.176 162.516 537.223 161.128C536.335 159.836 533.669 159.544 533.211 158.128C532.674 156.469 535.752 154.994 535.058 153.37C534.755 152.658 533.825 152.24 533.112 151.726C532.27 151.096 531.696 150.287 531.468 149.404C531.24 148.521 531.367 147.606 531.832 146.78C530.67 146.936 529.476 146.877 528.351 146.608C527.225 146.339 526.2 145.868 525.362 145.235C523.814 144.044 522.579 142.164 520.382 142.217C518.365 142.266 516.628 144.061 514.742 143.514C514.278 143.379 513.789 143.105 513.339 143.265C513.192 143.338 513.068 143.436 512.978 143.551C512.887 143.665 512.832 143.794 512.816 143.928C512.337 145.676 513.161 147.667 511.912 149.177C510.554 150.821 507.41 151.049 505.763 152.531C504.869 153.335 504.522 154.419 503.7 155.267C502.878 156.115 501.134 156.655 500.147 155.915C500.632 155.155 500.764 154.292 500.523 153.467C500.281 152.642 499.68 151.904 498.817 151.373C497.901 150.917 496.914 150.551 495.878 150.283C494.721 149.909 493.621 149.441 492.595 148.887C492.082 148.651 491.665 148.31 491.39 147.903C491.173 147.394 491.202 146.842 491.473 146.348C491.973 145.254 492.855 144.285 494.025 143.546C495.194 142.806 496.606 142.325 498.108 142.153C499.421 142.016 500.95 142.065 501.819 141.301C502.279 140.897 502.521 140.287 503.188 140.123C503.615 140.057 504.058 140.099 504.452 140.241L509.354 141.557C509.901 141.746 510.503 141.822 511.101 141.778C511.397 141.747 511.667 141.633 511.857 141.457C512.047 141.281 512.142 141.056 512.124 140.829C511.968 140.208 510.715 139.91 510.829 139.283C510.893 139.08 511.036 138.897 511.239 138.757C513.008 137.321 515.172 136.201 517.575 135.477C519.978 134.753 522.562 134.443 525.14 134.57C525.759 135.345 524.78 136.263 523.966 136.925C523.152 137.586 522.498 138.769 523.482 139.278C523.886 139.435 524.335 139.512 524.788 139.502C525.994 139.627 527.167 139.898 528.262 140.306C529.956 140.869 531.617 141.484 533.246 142.152C533.102 141.333 532.965 140.47 533.372 139.704C533.779 138.938 534.936 138.337 535.947 138.635C536.921 138.923 537.421 139.906 538.458 139.996C539.842 140.117 540.389 138.557 539.81 137.59C539.232 136.623 538.088 135.814 537.992 134.753C537.928 134.038 538.284 133.151 537.535 132.718C537.269 132.588 536.966 132.507 536.652 132.482L517.95 129.856C516.84 129.701 515.235 129.82 515.186 130.681C515.158 131.161 515.721 131.636 515.472 132.078C515.206 132.549 514.332 132.506 513.696 132.673C512.709 132.931 512.214 133.826 512.308 134.618C512.482 135.406 512.882 136.155 513.48 136.811C512.263 136.423 510.422 136.352 509.205 135.964Z" fill="#3F3D56"/>
<path id="Vector_35" d="M494.283 123.854C493.104 123.556 491.833 123.543 490.643 123.814C489.453 124.086 488.402 124.631 487.631 125.374C487.323 125.683 487.064 126.109 487.322 126.444C487.692 126.924 488.634 126.735 489.328 126.563C490.348 126.285 491.459 126.265 492.496 126.505C493.148 126.676 493.731 126.978 494.386 127.142C494.705 127.244 495.054 127.277 495.396 127.239C495.737 127.201 496.059 127.093 496.327 126.926C496.776 126.576 496.804 126.033 496.805 125.543C496.836 125.379 496.819 125.212 496.755 125.054C496.69 124.896 496.581 124.751 496.433 124.629C496.171 124.513 495.877 124.447 495.574 124.435C494.897 124.34 494.284 124.067 493.842 123.663" fill="#3F3D56"/>
<path id="Vector_36" d="M501.027 122.422C500.763 122.411 500.5 122.452 500.262 122.541C500.025 122.63 499.822 122.764 499.673 122.93C499.523 123.097 499.432 123.289 499.408 123.49C499.385 123.691 499.429 123.893 499.538 124.077C500.348 124.246 501.195 124.288 502.027 124.201C502.442 124.152 502.829 124.01 503.139 123.793C503.448 123.577 503.667 123.295 503.767 122.984C502.787 123.12 501.776 122.972 500.931 122.571" fill="#3F3D56"/>
<path id="Vector_37" d="M523.651 120.03C521.445 120.388 519.302 120.943 517.267 121.684C518.227 121.966 519.042 122.475 519.594 123.136C520.145 123.798 520.404 124.577 520.331 125.359C520.245 125.66 520.255 125.971 520.36 126.268C520.594 126.701 521.274 126.864 521.871 126.975C522.944 127.225 524.065 127.334 525.186 127.298C525.746 127.276 526.291 127.147 526.77 126.924C527.249 126.701 527.647 126.39 527.929 126.019C528.092 125.668 528.282 125.324 528.5 124.991C529.931 123.327 534.185 125.338 535.722 123.731C536.264 123.164 536.214 122.312 536.92 121.863C537.285 121.668 537.708 121.545 538.151 121.505C541.243 121.036 544.365 120.697 547.505 120.489C548.993 120.39 550.932 119.982 550.944 118.843C545.341 118.004 539.53 118.6 534.417 120.539C532.574 121.243 530.137 122.724 528.363 121.791C527.698 121.441 527.731 120.5 526.817 120.108C525.882 119.706 524.644 119.869 523.651 120.03Z" fill="#3F3D56"/>
<path id="Vector_38" d="M541.977 122.644L544.608 123.03C544.124 123.013 543.64 123.076 543.19 123.213C542.74 123.351 542.334 123.56 541.998 123.826C541.663 124.093 541.405 124.411 541.244 124.76C541.082 125.108 541.019 125.479 541.06 125.848C543.524 126.475 546.209 125.864 548.804 125.948C551.399 126.031 554.418 127.445 553.975 129.397C553.841 129.988 553.394 130.577 553.627 131.15C553.79 131.551 554.253 131.835 554.515 132.205C555.06 132.974 554.625 133.948 553.936 134.647C553.247 135.347 552.322 135.905 551.717 136.649C550.214 138.498 551.068 140.889 551.964 142.955C552.223 143.735 552.701 144.464 553.365 145.09C554.692 146.166 556.854 146.259 558.79 146.281C560.2 146.297 561.814 146.243 562.706 145.411C563.869 144.323 563.056 142.626 563.822 141.35C564.517 140.191 566.29 139.694 567.896 139.341C570.838 138.695 573.837 138.145 576.619 137.169C580.073 135.958 583.301 134.069 587.097 133.913C588.162 133.869 589.254 133.965 590.28 133.742C591.306 133.52 592.28 132.843 592.203 132.032C592.136 131.338 591.367 130.829 590.766 130.307C590.165 129.784 589.694 128.98 590.246 128.427L600.197 127.009C599.492 125.543 598.942 123.612 600.563 122.657C601.148 122.313 601.931 122.175 602.429 121.759C603.277 121.049 602.851 119.827 601.871 119.224C600.891 118.62 599.567 118.48 598.312 118.401C593.948 118.124 589.56 118.307 585.188 118.49C576.642 118.847 568.097 119.204 559.551 119.562C557.83 119.633 555.844 119.524 554.266 119.971C552.931 120.35 551.981 121.046 550.453 121.29C547.633 121.742 544.529 121.436 541.977 122.644Z" fill="#3F3D56"/>
<path id="Vector_39" d="M589.102 138.505C588.834 138.472 588.559 138.52 588.336 138.637C588.188 138.761 588.1 138.92 588.087 139.087C587.917 139.826 588.119 140.586 588.653 141.216C588.925 141.525 589.3 141.773 589.74 141.934C590.18 142.095 590.669 142.163 591.155 142.131C592.339 142.016 593.212 141.245 594.301 140.869C595.979 140.29 603.107 139.387 598.176 137.355C596.477 136.655 595.379 137.273 594.04 137.734C592.516 138.329 590.809 138.595 589.102 138.505V138.505Z" fill="#3F3D56"/>
<path id="Vector_40" d="M632.286 121.497C631.71 121.677 631.228 121.996 630.916 122.407C630.772 122.615 630.739 122.857 630.823 123.084C630.907 123.311 631.102 123.504 631.367 123.624C631.582 123.683 631.81 123.711 632.039 123.705L634.38 123.758C635.374 123.781 636.616 123.943 636.883 124.674C637.082 125.216 636.638 125.914 637.174 126.302C637.404 126.438 637.68 126.52 637.97 126.539C638.741 126.69 639.546 126.71 640.329 126.597C642.032 126.248 641.137 125.455 641.673 124.749C642.494 123.669 642.352 124.323 643.798 123.704C644.866 123.247 646.246 122.417 645.355 121.252C643.805 119.225 634.573 120.626 632.286 121.497Z" fill="#3F3D56"/>
<path id="Vector_41" d="M678.489 120.478L677.129 120.617C674.064 120.929 670.982 121.243 668.029 121.946C669.307 122.331 670.648 122.582 672.015 122.692C672.767 122.72 673.514 122.801 674.247 122.934C675.551 123.23 676.865 123.994 678.125 123.603C678.906 123.36 679.161 122.739 679.808 122.411C680.254 122.184 681.949 121.816 682.138 121.587C683.67 119.735 679.666 120.358 678.489 120.478Z" fill="#3F3D56"/>
<path id="Vector_42" d="M684.457 125.191C682.642 125.965 680.957 126.906 679.441 127.993C678.803 128.451 678.15 129.02 678.208 129.688C678.285 130.574 679.523 131.089 680.596 131.435L684.942 132.838C685.469 132.272 684.986 131.489 684.441 130.932C683.897 130.375 683.249 129.731 683.49 129.061C683.765 128.296 684.987 128.035 686.012 127.904C687.683 127.689 692.188 127.706 691.647 125.653C691.009 123.233 686.134 124.476 684.457 125.191Z" fill="#3F3D56"/>
<path id="Vector_43" d="M683.584 262.111C683.17 263.025 683.131 264.101 683.846 264.899C684.649 265.794 686.256 266.127 687.646 265.9C689.031 265.619 690.265 265.014 691.175 264.17C692.007 263.463 692.691 262.662 693.204 261.796C693.92 260.446 694.425 259.037 694.708 257.598L696.057 252.194C696.359 250.987 696.347 247.284 693.437 248.49C692.642 248.82 690.802 251.422 689.969 252.16C688.468 253.489 688.269 254.78 687.478 256.391C686.488 258.408 684.499 260.09 683.584 262.111Z" fill="#3F3D56"/>
<path id="Vector_44" d="M837.268 289.762C836.315 289.479 835.391 289.143 834.503 288.758C833.611 290.627 833.138 292.597 833.101 294.586L839.616 291.773C840.596 291.35 841.707 290.762 841.686 289.904C841.695 289.798 841.666 289.692 841.603 289.597C841.539 289.502 841.444 289.422 841.326 289.366C841.181 289.321 841.023 289.307 840.869 289.325C839.903 289.386 839.022 289.749 838.111 290.001C837.199 290.253 836.134 290.386 835.297 290.012" fill="#3F3D56"/>
<path id="Vector_45" d="M871.636 291.432C870.921 291.581 870.223 291.772 869.547 292.004C868.052 292.584 867.035 293.686 865.689 294.451C864.402 295.182 862.852 295.584 861.33 295.974C860.883 296.276 861.088 296.884 861.574 297.149C862.097 297.375 862.696 297.478 863.295 297.444C864.876 297.47 866.541 297.482 867.926 296.9C868.706 296.514 869.436 296.072 870.106 295.58C871.724 294.549 873.668 293.87 875.593 293.213C876.293 293.011 876.941 292.716 877.505 292.341C878.714 291.432 878.799 290.03 877.056 289.721C875.647 289.471 872.978 291.101 871.636 291.432Z" fill="#3F3D56"/>
<path id="Vector_46" d="M886.822 283.865C886.9 283.24 886.791 282.609 886.503 282.021C886.215 281.433 885.755 280.902 885.159 280.469C885.141 281.72 885.091 283.052 884.169 284.087C883.512 284.824 882.481 285.322 881.761 286.024C881.041 286.726 880.721 287.839 881.566 288.455C882.106 288.769 882.763 288.942 883.442 288.948C885.123 289.099 887.069 289.183 888.248 288.257C888.892 287.751 889.205 287.002 889.99 286.63C890.282 286.537 890.544 286.394 890.754 286.213C891.078 285.82 890.563 285.302 889.984 285.16C889.404 285.019 888.765 285.085 888.182 284.951C887.6 284.816 887.065 284.317 887.364 283.912" fill="#3F3D56"/>
<path id="Vector_47" d="M859.832 237.996C858.95 238.159 858.037 238.201 857.136 238.117C855.639 237.907 854.474 237.047 853.265 236.341C850.393 234.673 846.901 233.742 843.291 233.683C840.007 233.635 836.693 234.314 833.468 233.841C833.678 234.735 834.681 235.405 835.751 235.804C836.821 236.202 838.002 236.403 839.077 236.793C840.799 237.425 842.165 238.508 842.924 239.846C843.27 240.462 843.488 241.133 844.013 241.672C845.085 242.772 847.117 243.014 848.911 242.924C851.249 242.806 853.691 242.293 855.866 242.958C857.53 243.466 858.722 244.577 860.111 245.441C861.501 246.305 863.458 246.946 865.053 246.323C863.396 245.914 861.954 245.111 860.937 244.032C859.92 242.953 859.381 241.655 859.4 240.326C860.965 240.436 865.472 240.393 865.23 238.365C865.024 236.646 861.176 237.81 859.832 237.996Z" fill="#3F3D56"/>
<path id="Vector_48" d="M839.361 251.981C839.639 250.819 841.158 249.792 840.685 248.667C840.358 247.889 839.175 247.505 838.104 247.486C837.033 247.467 835.981 247.71 834.91 247.733C834.213 247.705 833.514 247.712 832.819 247.756C830.693 248.022 829.383 249.722 827.379 250.326C826.161 250.694 824.793 250.623 823.526 250.877C820.65 251.454 818.831 253.527 816.821 255.198C813.572 257.886 809.341 259.769 804.674 260.601C803.039 260.89 801.282 261.075 799.982 261.885C798.261 262.958 797.837 264.797 797.454 266.467C796.396 271.079 794.78 275.606 792.625 279.99L799.453 280.655C800.751 280.781 802.097 280.905 803.348 280.612C804.257 280.35 805.118 280 805.909 279.571C808.95 278.131 812.354 277.194 815.9 276.82C817.688 276.633 819.563 276.599 821.241 277.106C822.919 277.613 824.358 278.762 824.499 280.135C825.225 279.963 825.998 279.944 826.737 280.081C827.475 280.218 828.151 280.506 828.692 280.913C829.761 281.744 830.461 282.81 830.693 283.961C830.873 284.673 831.053 285.527 831.92 285.826C832.627 286.07 833.439 285.807 834.212 285.76C836.837 285.6 839.016 287.935 841.596 287.533C844.364 287.102 845.043 283.94 847.743 283.307C849.293 282.943 851.468 283.385 852.211 282.285C852.865 281.316 851.56 280.196 851.694 279.111C851.86 277.774 853.928 277.206 855.522 276.636C861.017 274.669 863.624 269.027 860.961 264.866C859.384 262.401 856.279 260.46 855.706 257.752C855.265 255.669 856.342 253.239 854.6 251.599C853.714 250.764 852.214 250.304 851.687 249.308C851.355 248.682 851.489 247.971 851.31 247.309C851.131 246.647 850.374 245.954 849.517 246.126C847.03 246.624 846.236 252.486 844.904 253.91C842.879 256.075 838.723 254.649 839.361 251.981Z" fill="#3F3D56"/>
<path id="Vector_49" d="M793.38 240.211C792.53 240.029 791.602 239.85 790.787 240.11C789.973 240.369 789.497 241.282 790.151 241.734C795.265 241.582 800.411 241.431 805.482 241.961C811.324 242.572 817.106 244.084 822.974 243.639C819.622 242.884 816.215 242.281 812.77 241.833L807.025 240.995C805.484 240.749 803.927 240.566 802.36 240.446C799.083 240.239 796.602 240.9 793.38 240.211Z" fill="#3F3D56"/>
<path id="Vector_50" d="M798.5 226.623C798.076 226.596 797.55 226.573 797.33 226.851C797.12 227.117 797.36 227.469 797.248 227.767C797.093 228.175 796.394 228.279 795.842 228.224C795.291 228.168 794.695 228.035 794.206 228.238C793.959 228.367 793.772 228.554 793.676 228.771C793.579 228.987 793.577 229.222 793.67 229.439C793.87 229.871 794.193 230.264 794.616 230.589C795.338 231.284 796.161 231.914 797.069 232.467C798.827 233.456 801.209 233.933 802.316 235.37C802.472 235.649 802.712 235.895 803.016 236.089C803.548 236.346 804.241 236.151 804.813 235.951L806.819 235.252C807.18 235.153 807.503 234.986 807.757 234.766C808.215 234.292 807.933 233.617 807.549 233.106C807.164 232.595 806.672 232.066 806.754 231.481C806.902 230.436 808.662 230.037 809.386 229.143C810.116 228.242 809.641 227.081 809.725 226.024C809.823 224.788 810.842 223.18 809.203 222.257C807.811 221.472 806.48 222.197 805.48 223.064C803.372 224.891 802.375 226.87 798.5 226.623Z" fill="#3F3D56"/>
<path id="Vector_51" d="M810.676 208.153C811.361 209.154 812.788 209.75 813.535 210.724C814.344 211.78 814.252 213.144 815.13 214.168C816.031 215.218 817.844 215.775 818.349 216.969C818.901 218.273 817.649 219.858 818.647 220.997C818.833 221.183 819.068 221.338 819.336 221.451C819.605 221.564 819.901 221.634 820.207 221.655C820.513 221.677 820.821 221.65 821.112 221.575C821.403 221.501 821.671 221.382 821.898 221.225C822.319 220.875 822.544 220.414 822.526 219.94C822.507 219.466 822.247 219.016 821.8 218.686C821.209 218.276 820.361 218.098 819.868 217.618C819.611 217.341 819.44 217.024 819.367 216.689C819.099 215.724 819.142 214.723 819.493 213.773C819.625 213.532 819.658 213.266 819.589 213.01C819.367 212.518 818.493 212.483 817.88 212.255C816.487 211.736 816.521 210.236 816.764 209.069C816.602 209.846 812.972 208.524 812.591 208.083C811.836 207.209 812.247 205.521 812.098 204.554C810.467 205.154 809.838 206.93 810.676 208.153Z" fill="#3F3D56"/>
<path id="Vector_52" d="M774.101 223.542C773.431 222.97 772.422 222.372 771.523 222.717C770.838 222.98 770.649 223.703 770.918 224.252C771.245 224.784 771.749 225.242 772.38 225.581C774.252 226.759 776.268 227.822 777.901 229.191C780.824 231.641 782.372 234.947 785.551 237.204C786.19 237.727 787.036 238.077 787.96 238.198C788.886 238.264 789.926 237.812 790.032 237.107C790.12 236.527 789.589 236.007 789.071 235.577C787.836 234.552 786.484 233.609 785.318 232.539C784.78 232.127 784.442 231.588 784.359 231.011C784.353 230.434 785.043 229.831 785.775 229.974C784.884 229.8 784.224 228.669 782.917 228.456C781.825 228.278 781.561 228.794 780.261 228.369C777.782 227.558 775.837 225.025 774.101 223.542Z" fill="#3F3D56"/>
<path id="Vector_53" d="M832.349 167.827C831.638 167.665 830.939 167.475 830.255 167.256C828.414 166.835 825.979 167.867 826.225 169.32C826.388 170.286 827.566 170.938 828.217 171.776C829.182 173.018 828.925 174.594 828.418 175.986C828.293 176.417 828.056 176.824 827.721 177.184C827.253 177.563 826.693 177.871 826.072 178.089C823.586 179.152 821.394 180.573 819.617 182.272C819.424 182.429 819.289 182.622 819.227 182.832C819.139 183.323 819.786 183.681 820.152 184.09C820.964 185 820.377 186.223 820.458 187.322C820.445 187.478 820.485 187.633 820.573 187.773C820.662 187.913 820.796 188.034 820.962 188.124C821.452 188.314 822.032 187.991 822.298 187.625C823.178 186.408 822.515 184.454 824.167 183.867C824.48 183.756 824.858 183.709 825.067 183.5C825.398 183.168 825.079 182.676 825.246 182.278C825.498 181.682 826.567 181.656 827.387 181.682C828.801 181.727 830.213 181.584 831.562 181.258C832.091 181.162 832.571 180.95 832.944 180.648C833.438 180.177 833.394 179.509 833.295 178.911C832.801 175.931 831.563 173.05 829.649 170.425C831.101 170.566 832.68 170.689 833.932 170.112C834.633 169.789 835.474 168.823 835.126 168.165C834.576 167.125 833.583 168.001 832.349 167.827Z" fill="#3F3D56"/>
<path id="Vector_54" d="M646.287 184.217C646.461 184.928 646.632 185.676 646.326 186.361C646.021 187.045 645.061 187.617 644.154 187.407C643.45 187.244 643.043 186.704 642.544 186.293C639.764 184.004 633.494 185.329 631.777 182.498C631.077 181.342 631.553 179.958 631.075 178.738C630.773 178.033 630.174 177.424 629.369 177.008C628.565 176.591 627.602 176.39 626.632 176.436C625.747 176.533 624.886 176.729 624.075 177.018C618.647 178.676 612.948 179.763 607.136 180.25C606.031 180.301 604.939 180.453 603.881 180.701C601.495 181.361 599.864 183.049 598.703 184.771C597.543 186.494 596.686 188.358 595.13 189.888C593.495 191.497 591.204 192.623 589.066 193.841C588.243 194.246 587.557 194.794 587.066 195.44C586.602 196.166 586.629 197.01 586.664 197.817L587.101 207.614C587.158 208.875 587.228 210.18 587.968 211.308C588.891 212.716 590.715 213.638 591.98 214.883C593.272 216.161 593.944 217.741 593.885 219.354C593.858 220.003 593.773 220.77 594.435 221.177C594.838 221.376 595.31 221.48 595.79 221.474L613.165 222.559C616.221 222.75 619.608 223.064 621.604 224.84C622.545 225.678 623.302 226.884 624.744 226.974C625.363 227.012 625.965 226.818 626.584 226.781C628.145 226.687 629.517 227.591 630.383 228.586C631.693 230.104 632.288 231.916 632.069 233.726C631.927 234.861 631.466 235.966 631.366 237.104C630.987 241.436 635.801 245.199 635.895 249.54C635.95 252.093 634.361 254.479 632.811 256.743C635.312 259.632 633.264 263.479 634.26 266.857C635.204 270.062 638.707 272.57 639.58 275.787C639.979 277.259 640.002 279.071 641.704 279.829C642.451 280.107 643.279 280.233 644.109 280.197C649.112 280.242 654.058 279.383 658.543 277.69C660.647 276.893 662.829 275.704 663.196 273.934C663.493 272.506 662.544 270.909 663.509 269.666C664.648 268.2 667.564 268.316 669.239 267.19C671.956 265.362 669.837 261.875 670.938 259.242C671.928 256.876 675.334 255.618 677.023 253.494C677.687 252.581 678.164 251.595 678.437 250.571C679.21 248.124 679.692 245.629 679.875 243.116C679.92 241.589 680.068 240.064 680.318 238.549C682.138 229.921 693.32 224.144 696.95 215.856C697.297 215.064 697.46 214.01 696.537 213.562C695.989 213.362 695.368 213.313 694.778 213.421L686.769 214.192C685.774 214.287 684.72 214.377 683.806 214.062C682.892 213.746 682.238 212.865 682.722 212.195C684.083 210.315 681.284 207.94 680.041 206.014C676.693 200.827 672.706 195.895 668.134 191.284C667.841 191.047 667.658 190.743 667.612 190.419L669.885 190.477C669.118 188.377 667.851 186.078 665.176 185.31C663.669 184.877 662 185.027 660.391 185.094C655.785 185.286 650.846 184.755 646.287 184.217Z" fill="#3F3D56"/>
<path id="Vector_55" d="M660.395 136.886C661.601 137.863 662.951 138.898 664.696 139.068C667.776 139.369 669.991 136.939 671.401 134.828C671.453 135.366 671.779 135.868 672.308 136.225C672.837 136.583 673.529 136.77 674.235 136.745C674.996 136.647 675.721 136.431 676.367 136.109C682.471 133.565 689.307 132.217 696.262 132.186C696.196 131.784 696.326 131.377 696.629 131.045C696.932 130.712 697.386 130.477 697.903 130.384C699.317 130.17 700.591 131.103 701.273 132.072C701.955 133.04 702.381 134.163 703.465 134.889C704.548 135.614 706.647 135.582 707.075 134.532C707.486 133.524 706.109 132.664 704.965 132.07C703.821 131.475 702.616 130.375 703.386 129.498C709.23 128.511 715.11 127.521 721.09 127.325C722.108 127.352 723.123 127.218 724.07 126.933C724.982 126.592 725.707 125.817 725.462 125.065C724.157 125.299 722.79 125.231 721.536 124.87C720.282 124.509 719.197 123.872 718.419 123.039C726.717 122.516 735.542 122.071 742.896 125.049C743.778 126.494 739.281 127.697 740.484 129C740.868 129.416 741.637 129.464 742.303 129.474C747.413 129.546 752.553 129.617 757.605 129.029C759.452 128.814 761.317 128.51 763.17 128.684C766.258 128.975 768.899 130.546 771.936 131.059C773.173 131.267 774.559 131.274 775.601 130.726C776.643 130.177 777.091 128.928 776.237 128.215C779.097 126.077 783.844 126.607 787.617 127.631C791.39 128.654 794.965 130.305 798.958 130.533C801.822 130.697 804.725 130.109 807.555 130.483C809.333 130.717 810.988 131.321 812.726 131.692C816.013 132.393 819.49 132.245 822.902 132.278C831.61 132.368 840.223 133.673 848.313 136.13C849.366 136.392 850.33 136.826 851.138 137.403C851.891 138.018 852.275 138.974 851.769 139.721L843.408 138.79C844.196 139.973 846.234 140.174 847.889 140.582C849.544 140.99 851.26 142.384 850.265 143.473C848.472 143.037 846.847 144.405 845.941 145.663C845.036 146.921 843.932 148.428 842.053 148.505C840.37 148.574 838.335 147.481 837.238 148.457C838.753 149.915 840.051 151.497 841.107 153.175C842.19 154.897 842.962 157.067 841.497 158.616C841.267 158.893 840.918 159.099 840.509 159.201C839.313 159.432 838.536 158.316 837.678 157.639C836.597 156.786 834.962 156.545 833.498 156.145C832.034 155.745 830.492 154.959 830.378 153.776C830.306 153.04 830.816 152.356 831.191 151.676C831.822 150.529 832.097 149.287 831.997 148.046C831.915 147.048 831.548 146.009 830.608 145.312C829.668 144.614 828.045 144.393 827.036 145.032C826.565 145.33 826.188 145.807 825.576 145.825C824.496 145.856 823.667 144.419 822.797 144.91C822.899 145.432 822.757 145.966 822.396 146.417C819.802 148.137 815.818 147.409 812.474 148.017C810.884 148.364 809.361 148.871 807.947 149.525C807.418 149.698 806.968 149.986 806.653 150.354C806.236 150.972 806.696 151.765 807.432 152.176C808.212 152.541 809.089 152.769 809.998 152.845C814.075 153.433 818.211 154.345 821.429 156.342C824.648 158.34 826.758 161.641 825.74 164.709L817.701 158.85C818.006 161.31 818.18 163.777 818.221 166.251C818.273 166.734 818.186 167.22 817.966 167.675C817.393 168.64 815.839 168.965 814.478 169.178C814.1 169.233 813.741 169.349 813.425 169.517C813.109 169.685 812.843 169.902 812.645 170.155C812.447 170.407 812.321 170.688 812.275 170.98C812.23 171.272 812.266 171.568 812.381 171.848C812.865 173.051 814.071 173.988 815.175 174.922C816.279 175.856 817.365 176.918 817.51 178.171C817.654 179.424 816.415 180.836 814.77 180.749C813.523 180.683 812.598 179.831 812.067 178.969C811.535 178.106 811.218 177.145 810.419 176.411C808 174.192 802.567 175.143 800.401 172.777C799.848 173.255 799.465 173.833 799.288 174.456C799.111 175.078 799.145 175.725 799.387 176.335C800.395 175.853 801.775 176.301 802.533 177C803.29 177.7 803.647 178.596 804.242 179.382C805.045 180.442 806.322 181.382 806.434 182.603C806.404 183.065 806.415 183.527 806.465 183.988C806.664 184.728 807.483 185.259 808.052 185.878C809.375 187.317 809.309 189.294 808.457 190.927C807.604 192.559 806.073 193.924 804.555 195.247C801.906 197.557 799.202 199.854 796.06 201.773C795.164 202.32 794.207 202.858 793.649 203.624C793.091 204.389 793.062 205.464 793.92 206.046C793.306 206.069 792.205 206.3 791.592 206.323C791.376 204.445 791.329 202.557 791.451 200.674C789.029 199.787 786.42 202.163 786.733 204.199C787.046 206.235 788.976 207.869 790.35 209.63C791.356 210.918 792.102 212.42 791.767 213.897C791.431 215.374 789.703 216.736 787.745 216.606C784.631 216.399 783.329 212.989 780.245 212.599C779.973 212.55 779.688 212.572 779.434 212.66C778.976 212.852 778.897 213.319 778.871 213.717C778.745 215.669 778.636 217.699 779.635 219.499C781.096 222.133 784.873 224.345 784.08 227.14C779.813 225.627 777.595 221.976 776.587 218.47C775.58 214.964 775.412 211.283 773.606 207.968C772.235 209.309 769.353 208.201 768.101 206.794C766.913 205.461 766.182 203.919 765.029 202.568C763.877 201.216 762.112 200.006 760.001 199.932C757.788 199.854 755.868 201.013 754.18 202.107C752.792 203.008 751.367 203.943 750.555 205.187C749.375 206.998 749.684 209.133 749.627 211.155C749.565 213.34 748.958 215.647 747.005 217.247C745.052 218.847 741.447 219.404 739.293 217.962C738.168 217.209 737.624 216.084 737.139 215.005C734.801 209.8 732.854 204.497 731.307 199.123C730.945 200.35 729.533 201.931 728.184 201.208C727.881 201.014 727.636 200.773 727.464 200.501C724.948 197.248 720.289 195.297 715.581 194.127C710.873 192.957 705.92 192.412 701.264 191.126C698.655 190.405 696.163 189.458 693.837 188.304C693.245 188.968 692.898 189.743 692.836 190.545C692.773 191.348 692.996 192.148 693.481 192.862C694.513 194.256 696.85 195.063 698.851 194.576C699.884 194.324 700.757 193.777 701.783 193.506C702.809 193.236 704.186 193.369 704.634 194.122C705.064 194.844 704.415 195.717 704.737 196.47C705.227 197.618 707.496 197.706 708.289 198.75C708.879 199.527 708.393 200.559 707.551 201.186C706.708 201.812 705.583 202.156 704.555 202.593C701.217 204.009 698.843 206.426 695.925 208.306C693.008 210.187 688.892 211.56 685.416 210.354C686.244 207.152 681.245 204.802 680.326 201.616C680.023 200.567 680.18 199.453 679.748 198.431C679.122 196.951 677.401 195.933 675.989 194.812C674.276 193.437 672.942 191.814 672.065 190.039C671.188 188.265 670.786 186.374 670.882 184.479C670.958 183.162 671.276 181.823 670.882 180.54C670.489 179.256 669.096 178.013 667.369 178.072C663.426 178.204 658.458 178.428 656.389 175.864C655.651 174.949 655.33 173.608 656.397 172.907C657.15 172.413 658.262 172.459 659.251 172.534L668.136 173.2C670.214 173.356 672.46 173.485 674.243 172.656C676.027 171.827 676.799 169.628 675.148 168.653C673.942 167.94 671.78 167.979 671.429 166.846C671.137 165.903 672.506 164.833 671.767 164.045C671.237 163.479 670.045 163.636 669.323 164.06C668.601 164.484 668.077 165.103 667.269 165.424C665.851 165.987 664.157 165.451 662.632 165.087C661.106 164.723 659.061 164.692 658.322 165.773C657.494 166.982 659.055 168.565 658.234 169.776C657.149 171.377 653.472 170.466 651.947 171.843C650.198 173.424 653.138 175.78 652.548 177.799C651.795 178.084 650.957 178.214 650.118 178.178C649.279 178.142 648.466 177.941 647.759 177.594C647.064 177.233 646.51 176.736 646.156 176.154C645.802 175.572 645.662 174.928 645.749 174.29C645.895 173.382 646.516 172.455 646.1 171.597C645.764 170.903 644.851 170.49 644.002 170.132L635.368 166.492C634.566 167.627 635.579 169.033 636.847 169.885C638.114 170.737 639.702 171.379 640.534 172.5C641.061 173.277 641.179 174.178 640.864 175.019C640.55 175.86 639.826 176.577 638.841 177.025C638.718 177.09 638.577 177.134 638.43 177.154C638.282 177.173 638.13 177.168 637.985 177.139C637.848 177.077 637.728 176.995 637.632 176.897C637.537 176.799 637.468 176.688 637.43 176.57C635.907 173.596 633.62 170.664 629.963 169.11C626.306 167.557 621.052 167.876 618.654 170.493C618.084 171.115 617.702 171.823 617.206 172.48C614.57 175.972 608.919 177.625 603.639 177.517C603.122 177.539 602.609 177.447 602.159 177.252C601.306 176.802 601.344 175.848 601.475 175.063L602.029 171.733C602.14 171.064 602.301 170.325 602.995 169.908C603.973 169.319 605.384 169.691 606.63 169.677C607.574 169.643 608.481 169.389 609.229 168.949C609.977 168.508 610.529 167.903 610.811 167.216C611.063 166.521 611.061 165.787 610.807 165.093C610.552 164.399 610.054 163.771 609.366 163.277C608.795 162.868 608.029 162.355 608.33 161.803C608.451 161.651 608.613 161.52 608.807 161.421C609 161.321 609.22 161.255 609.451 161.228C611.688 160.732 614.052 160.602 616.253 160.017C618.453 159.433 620.586 158.236 621.107 156.504C621.267 155.973 621.34 155.33 621.965 155.067C622.279 154.966 622.615 154.913 622.956 154.912C624.149 154.783 625.235 154.317 626 153.608C626.766 152.898 627.155 151.995 627.092 151.078C628.147 150.516 629.624 150.929 630.644 151.527C631.664 152.125 632.565 152.914 633.806 153.172C636.119 153.652 638.354 152.09 640.752 152.083C641.76 152.08 642.803 152.352 643.752 152.091C644.713 151.827 645.287 151.097 646.025 150.557C646.763 150.018 648.058 149.689 648.739 150.27L648.159 146.991C649.328 147.217 650.546 147.249 651.732 147.085C652.918 146.921 654.044 146.566 655.035 146.043L647.536 144.11C647.275 144.061 647.034 143.962 646.835 143.824C646.29 143.377 646.831 142.679 647.275 142.17C648.335 140.952 648.513 138.946 646.769 138.34C645.579 137.926 644.212 138.423 643.07 138.909L637.596 141.236C637.423 142.03 638.695 142.48 639.483 143.014C639.96 143.338 640.298 143.764 640.452 144.236C640.605 144.709 640.568 145.206 640.345 145.662C640.122 146.118 639.723 146.512 639.201 146.792C638.679 147.072 638.058 147.225 637.42 147.231C637.781 147.588 638.031 148.003 638.153 148.444C638.275 148.885 638.265 149.342 638.124 149.78L634.442 149.982C634.028 150.045 633.599 149.981 633.247 149.804C632.853 149.537 632.907 149.07 632.815 148.674C632.595 147.719 631.369 147.049 630.118 146.878C628.866 146.706 627.586 146.926 626.347 147.143C625.821 147.288 625.243 147.278 624.726 147.115C624.43 146.968 624.205 146.751 624.085 146.497C623.542 145.493 624.05 144.312 624.922 143.452C625.795 142.593 626.989 141.965 628.062 141.25C630.627 139.533 632.512 137.303 633.503 134.812C635.53 134.164 637.629 133.284 639.656 132.636C642.782 131.429 646.287 130.911 649.777 131.14L656.642 131.24C658.675 131.27 660.763 131.308 662.642 131.899C664.522 132.49 666.173 133.768 666.303 135.316C666.342 135.491 666.322 135.671 666.245 135.839C666.168 136.007 666.037 136.157 665.863 136.275C665.597 136.385 665.297 136.437 664.995 136.424C663.099 136.475 662.291 136.835 660.395 136.886Z" fill="#3F3D56"/>
<path id="Vector_56" d="M605.673 153.299C605.941 153.105 606.134 152.859 606.231 152.587C606.327 152.315 606.324 152.028 606.221 151.758C605.568 151.566 604.858 151.516 604.171 151.615C603.483 151.714 602.846 151.958 602.33 152.318C601.923 152.632 601.572 152.986 601.287 153.37C600.385 154.492 599.587 155.833 600.11 157.088C600.153 157.225 600.231 157.354 600.339 157.468C600.448 157.581 600.586 157.677 600.744 157.75C600.978 157.821 601.231 157.852 601.483 157.838C602.476 157.837 603.469 157.79 604.456 157.698C605.062 157.642 605.765 157.511 605.999 157.081C606.307 156.516 605.562 155.877 605.779 155.288C605.922 155.024 606.139 154.788 606.414 154.595C606.55 154.497 606.655 154.377 606.72 154.244C606.785 154.11 606.808 153.967 606.788 153.825C606.7 153.549 606.145 153.392 605.946 153.632" fill="#3F3D56"/>
<path id="Vector_57" d="M610.826 148.203C609.944 148.048 609.033 148.004 608.132 148.074C607.933 148.069 607.735 148.103 607.558 148.173C607.386 148.27 607.262 148.407 607.204 148.564C607.014 149.03 607.061 149.534 607.335 149.974C607.61 150.415 608.092 150.761 608.686 150.943C609.01 151 609.32 151.095 609.605 151.225C610.367 151.676 609.881 152.598 610.026 153.325C610.188 154.142 611.224 154.828 611.034 155.641C610.884 156.282 609.987 156.789 610.132 157.43C610.283 158.102 611.4 158.304 612.291 158.358C612.808 158.427 613.339 158.38 613.822 158.224C614.305 157.972 614.649 157.592 614.787 157.158C615.152 156.33 615.305 155.456 615.238 154.584C615.234 154.187 615.104 153.797 614.858 153.448C614.59 153.171 614.292 152.911 613.969 152.671C612.262 151.156 614.059 148.898 610.826 148.203Z" fill="#3F3D56"/>
<path id="Vector_58" opacity="0.8" d="M835.27 266.84C835.27 266.84 704.545 209.6 648.265 220.445C648.265 220.445 528.993 230.236 515.17 251.777C515.17 251.777 477.256 161.398 463.433 158.385" stroke="#6C63FF" stroke-width="2" stroke-miterlimit="10"/>
<path id="Vector_59" opacity="0.8" d="M515.17 251.777C537.09 207.19 734.56 157.783 734.56 157.783C706.519 163.205 648.265 220.445 648.265 220.445C648.265 220.445 525.044 152.059 463.433 158.385C463.433 158.385 734.758 165.164 835.27 266.84" stroke="#6C63FF" stroke-width="2" stroke-miterlimit="10"/>
<path id="Vector_60" d="M463.433 162.754C466.596 162.754 469.16 160.798 469.16 158.385C469.16 155.973 466.596 154.017 463.433 154.017C460.27 154.017 457.706 155.973 457.706 158.385C457.706 160.798 460.27 162.754 463.433 162.754Z" fill="#6C63FF"/>
<path id="Vector_61" d="M515.17 256.145C518.333 256.145 520.897 254.189 520.897 251.777C520.897 249.364 518.333 247.408 515.17 247.408C512.008 247.408 509.444 249.364 509.444 251.777C509.444 254.189 512.008 256.145 515.17 256.145Z" fill="#6C63FF"/>
<path id="Vector_62" d="M734.56 162.151C737.723 162.151 740.287 160.195 740.287 157.783C740.287 155.37 737.723 153.414 734.56 153.414C731.397 153.414 728.833 155.37 728.833 157.783C728.833 160.195 731.397 162.151 734.56 162.151Z" fill="#6C63FF"/>
<path id="Vector_63" d="M835.27 271.208C838.433 271.208 840.997 269.252 840.997 266.84C840.997 264.427 838.433 262.471 835.27 262.471C832.107 262.471 829.543 264.427 829.543 266.84C829.543 269.252 832.107 271.208 835.27 271.208Z" fill="#6C63FF"/>
<path id="Vector_64" d="M648.265 224.814C651.428 224.814 653.992 222.858 653.992 220.445C653.992 218.033 651.428 216.077 648.265 216.077C645.103 216.077 642.539 218.033 642.539 220.445C642.539 222.858 645.103 224.814 648.265 224.814Z" fill="#6C63FF"/>
</g>
</g>
<defs>
<clipPath id="clip0_1_36">
<rect width="1019.48" height="436.681" fill="white"/>
</clipPath>
<clipPath id="clip1_1_36">
<rect width="32" height="32" fill="white" transform="translate(67.1958 55.1557) rotate(22.1018)"/>
</clipPath>
<clipPath id="clip2_1_36">
<rect width="32" height="32" fill="white" transform="translate(208.821 81.9932) rotate(-12.9519)"/>
</clipPath>
<clipPath id="clip3_1_36">
<rect width="24" height="32" fill="white" transform="translate(45.4875 154) rotate(22.9692)"/>
</clipPath>
<clipPath id="clip4_1_36">
<rect width="36" height="36" fill="white" transform="translate(111 110)"/>
</clipPath>
<clipPath id="clip5_1_36">
<rect width="563" height="319" fill="white" transform="translate(361 45)"/>
</clipPath>
</defs>
</svg>
